<?xml version="1.0" encoding="utf-8"?>
<!-- Generator: Adobe Illustrator 16.0.4, SVG Export Plug-In . SVG Version: 6.00 Build 0)  -->
<!DOCTYPE svg PUBLIC "-//W3C//DTD SVG 1.1//EN" "http://www.w3.org/Graphics/SVG/1.1/DTD/svg11.dtd">
<svg version="1.1" id="Layer_1" xmlns="http://www.w3.org/2000/svg" xmlns:xlink="http://www.w3.org/1999/xlink" x="0px" y="0px"
	 width="432px" height="126px" viewBox="0 0 432 126" enable-background="new 0 0 432 126" xml:space="preserve">
<rect x="29.669" y="44.199" fill="#FFFFFF" width="381.331" height="43.801"/>
<text transform="matrix(1 0 0 1 29.7295 90.0088)" fill="#424244" font-family="'Blackout-2AM'" font-size="61.0783">SKATEBOARDING</text>
<rect x="303.5" y="84.919" fill="#424244" width="85.069" height="26.298"/>
<rect x="18.257" y="17.902" fill="#424244" width="153.91" height="26.297"/>
<g enable-background="new    ">
	<path fill="#FED700" d="M29.598,21.528h10.037V38.61H29.598V21.528z M38.881,26.517v-2.851H30.29v2.851h2.871v9.772h2.85v-9.772
		H38.881z"/>
	<path fill="#FED700" d="M39.411,21.509h10.75V38.59h-10.75V21.509z M49.183,36.269V23.646h-2.851v4.886h-3.379v-4.886h-2.851
		v12.622h2.851v-4.886h3.379v4.886H49.183z"/>
	<path fill="#FED700" d="M49.875,21.509h19.333V38.59H49.875V21.509z M58.365,26.496v-2.85h-7.737v12.622h7.737v-2.85h-4.886v-2.036
		h3.604v-2.851h-3.604v-2.036H58.365z"/>
	<path fill="#FED700" d="M69.074,21.509h10.75V38.59h-10.75V21.509z M78.847,36.269V23.646h-2.851v4.886h-3.379v-4.886h-2.851
		v12.622h2.851v-4.886h3.379v4.886H78.847z"/>
	<path fill="#FED700" d="M79.437,21.509h4.866V38.59h-4.866V21.509z M83.265,36.269V23.646h-2.851v12.622H83.265z"/>
	<path fill="#FED700" d="M93.362,21.528V38.61h-9.447V21.528H93.362z M92.283,32.38c0-0.529-0.102-1.027-0.305-1.496
		c-0.204-0.468-0.482-0.875-0.835-1.222c-0.353-0.346-0.767-0.617-1.242-0.814c-0.476-0.196-0.978-0.295-1.507-0.295
		c-0.299,0-0.55-0.092-0.753-0.275c-0.204-0.183-0.305-0.417-0.305-0.702c0-0.067,0.013-0.169,0.041-0.306
		c0.068-0.217,0.197-0.393,0.387-0.529c0.189-0.135,0.4-0.203,0.631-0.203c0.285,0,0.529,0.102,0.733,0.306
		c0.204,0.203,0.306,0.447,0.306,0.732h2.85c0-0.529-0.102-1.031-0.305-1.507c-0.204-0.475-0.482-0.892-0.835-1.252
		c-0.353-0.359-0.767-0.641-1.242-0.845c-0.476-0.203-0.978-0.306-1.507-0.306c-0.435,0-0.852,0.068-1.252,0.204
		c-0.4,0.136-0.764,0.325-1.089,0.57c-0.326,0.244-0.607,0.536-0.845,0.875c-0.238,0.34-0.417,0.706-0.54,1.1
		c-0.122,0.366-0.184,0.753-0.184,1.16c0,0.543,0.105,1.046,0.316,1.507c0.21,0.462,0.492,0.865,0.845,1.211
		c0.353,0.347,0.764,0.618,1.232,0.814c0.468,0.197,0.974,0.296,1.517,0.296c0.285,0,0.529,0.091,0.733,0.274
		s0.306,0.425,0.306,0.723c0,0.068-0.014,0.17-0.041,0.306c-0.068,0.217-0.193,0.394-0.376,0.529s-0.391,0.203-0.621,0.203
		c-0.299,0-0.55-0.102-0.753-0.305c-0.204-0.204-0.305-0.455-0.305-0.754h-2.851c0,0.543,0.102,1.053,0.306,1.527
		c0.204,0.476,0.481,0.889,0.834,1.242c0.353,0.353,0.767,0.631,1.242,0.834c0.475,0.204,0.984,0.306,1.527,0.306
		c0.434,0,0.852-0.067,1.252-0.203s0.764-0.326,1.089-0.57s0.607-0.536,0.845-0.876c0.237-0.339,0.417-0.705,0.539-1.099
		C92.229,33.147,92.283,32.761,92.283,32.38z"/>
	<path fill="#FED700" d="M92.792,21.528h10.037V38.61H92.792V21.528z M102.076,26.517v-2.851h-8.591v2.851h2.871v9.772h2.85v-9.772
		H102.076z"/>
	<path fill="#FED700" d="M113.925,21.509V38.59h-11.34V21.509H113.925z M113.192,31.261v-1.019v-1.567v-0.387
		c-0.055-0.598-0.204-1.16-0.448-1.689c-0.244-0.53-0.57-1.005-0.977-1.426c-0.461-0.488-0.991-0.865-1.588-1.13
		c-0.598-0.265-1.222-0.396-1.873-0.396h-0.021c-0.665,0-1.296,0.132-1.894,0.396s-1.126,0.642-1.588,1.13
		c-0.407,0.435-0.73,0.916-0.967,1.445s-0.383,1.093-0.438,1.69v2.952c0.013,0.665,0.139,1.3,0.376,1.903
		c0.237,0.604,0.581,1.144,1.028,1.618c0.475,0.476,1.008,0.846,1.598,1.11s1.218,0.396,1.883,0.396h0.021
		c0.651,0,1.275-0.132,1.873-0.396c0.597-0.265,1.126-0.635,1.588-1.11c0.448-0.475,0.794-1.014,1.039-1.618
		c0.244-0.604,0.366-1.238,0.366-1.903H113.192z"/>
	<path fill="#FED700" d="M123.045,21.509V38.59h-9.548V21.509H123.045z M122.394,36.269l-2.402-5.212
		c0.651-0.312,1.174-0.776,1.568-1.395c0.393-0.617,0.59-1.313,0.59-2.087c0-0.543-0.105-1.052-0.316-1.526
		c-0.21-0.476-0.492-0.893-0.845-1.253c-0.353-0.359-0.767-0.641-1.242-0.845c-0.476-0.203-0.984-0.305-1.527-0.305h-0.02h-3.828
		v12.622h2.85v-4.784h0.021l2.199,4.784H122.394z"/>
	<path fill="#FED700" d="M122.74,21.509h21.167V38.59H122.74V21.509z M129.724,29.978l3.4-6.331h-2.85l-1.975,3.664l-1.975-3.664
		h-2.851l3.4,6.311v6.312h2.85V29.978z"/>
	<path fill="#FED700" d="M155.091,21.509V38.59h-11.34V21.509H155.091z M154.358,31.261v-1.019v-1.567v-0.387
		c-0.055-0.598-0.204-1.16-0.448-1.689c-0.244-0.53-0.57-1.005-0.977-1.426c-0.461-0.488-0.991-0.865-1.588-1.13
		c-0.598-0.265-1.222-0.396-1.873-0.396h-0.021c-0.665,0-1.296,0.132-1.894,0.396s-1.126,0.642-1.588,1.13
		c-0.407,0.435-0.73,0.916-0.967,1.445s-0.383,1.093-0.438,1.69v2.952c0.013,0.665,0.139,1.3,0.376,1.903
		c0.237,0.604,0.581,1.144,1.028,1.618c0.475,0.476,1.008,0.846,1.598,1.11s1.218,0.396,1.883,0.396h0.021
		c0.651,0,1.275-0.132,1.873-0.396c0.597-0.265,1.126-0.635,1.588-1.11c0.448-0.475,0.794-1.014,1.039-1.618
		c0.244-0.604,0.366-1.238,0.366-1.903H154.358z"/>
	<path fill="#FED700" d="M154.867,21.509h9.569V38.59h-9.569V21.509z M163.663,26.496v-2.85h-7.737v12.622h2.851v-4.886h3.604
		v-2.851h-3.604v-2.036H163.663z"/>
</g>
<g>
	<text transform="matrix(1 0 0 1 342.8652 104.3438)" fill="#FED700" font-family="'Blackout-2AM'" font-size="20.3594">.com</text>
</g>
</svg>
